<svg xmlns="http://www.w3.org/2000/svg" width="156.309" height="98.685" viewBox="109.346 307.315 156.309 98.685"><g data-name="My phone solo red"><path d="m212.55 355.045-16.236-.87a2.699 2.699 0 0 0-.935.109c-.311.106-.61.245-.893.413a5.289 5.289 0 0 0-.74.653c-.22.24-.39.521-.5.827l-14.843 36.02a3.025 3.025 0 0 0-.24 1.044c-.022.325.022.65.13.958.084.29.233.559.436.783.202.24.465.421.762.523l15.8 6.159c.358.149.745.216 1.132.196a2.808 2.808 0 0 0 1.11-.305 2.72 2.72 0 0 0 .958-.696 3.46 3.46 0 0 0 .63-1.067l15.236-42.157c.114-.305.16-.632.13-.957a1.828 1.828 0 0 0-.326-.827 2.677 2.677 0 0 0-.718-.566 2.83 2.83 0 0 0-1.002-.24" fill="#d42828" fill-rule="evenodd" data-name="Path 8975"/><path d="M179.49 395.505a1.72 1.72 0 0 1-.76-.523 1.98 1.98 0 0 1-.436-.783 2.372 2.372 0 0 1-.13-.958c.016-.36.097-.713.239-1.044l14.843-36.02a2.48 2.48 0 0 1 .5-.827c.226-.24.474-.459.74-.653.282-.168.582-.307.893-.413.303-.091.62-.128.935-.11l16.236.871c.346.018.685.1 1.001.24.27.146.513.337.719.566.175.244.287.528.326.827.029.325-.016.652-.13.957l-15.235 42.157a3.46 3.46 0 0 1-.631 1.067 2.72 2.72 0 0 1-.958.696c-.345.177-.723.28-1.11.305a2.59 2.59 0 0 1-1.132-.196l-15.8-6.16m33.777-43.788-15.54-.501a6.399 6.399 0 0 0-2.176.326 8.706 8.706 0 0 0-2.176 1.023 8.248 8.248 0 0 0-1.785 1.567 7.443 7.443 0 0 0-1.24 1.96l-14.669 34.952a8.705 8.705 0 0 0-.5 2.568c-.057.73.001 1.465.174 2.177a5.463 5.463 0 0 0 1.066 1.98 4.658 4.658 0 0 0 1.806 1.35l15.061 6.355c.893.382 1.86.56 2.83.522a6.9 6.9 0 0 0 2.785-.675 7.508 7.508 0 0 0 2.394-1.763 8.074 8.074 0 0 0 1.61-2.677l15.235-42.918a5.07 5.07 0 0 0 .283-2.438 4.092 4.092 0 0 0-.87-1.98 4.897 4.897 0 0 0-1.785-1.371 6.53 6.53 0 0 0-2.503-.544" fill="#fff" fill-rule="evenodd" data-name="Path 8974"/><path d="m246.089 376.2 7.987-5.202a4.353 4.353 0 0 0-3.635-1.567 7.247 7.247 0 0 0-7.051 7.16 7.509 7.509 0 0 0 7.443 7.553c3.743 0 5.702-2.068 7.335-5.202l7.486 1.458c-2.677 6.312-7.77 10.882-14.93 10.882-7.94.28-14.601-5.934-14.878-13.874-.276-7.94 5.937-14.601 13.877-14.878 7.095.002 10.62 3.31 14.32 8.947l-14.755 9.555-3.2-4.832Z" fill="#fff" fill-rule="evenodd" data-name="Path 8973"/><path d="M220.995 362.641a11.73 11.73 0 0 1 12.187 11.861v16.15h-7.639v-15.605c0-2.852-1.327-5.246-4.461-5.246-3.134 0-4.2 2.569-4.2 5.246v15.56h-7.618V374.22a11.513 11.513 0 0 1 11.73-11.579Z" fill="#fff" fill-rule="evenodd" data-name="Path 8972"/><path d="M133.612 395.026h131.02v5.941h-131.02v-5.941z" fill="#fff" fill-rule="evenodd" data-name="Rectangle 7896"/><path d="M145.104 333.586c.305-.522.631-1.023.957-1.48.133-.204.279-.4.436-.587a26.486 26.486 0 0 1 3.787-4.223 47.172 47.172 0 0 1 2.328-1.915c.784-.61 1.59-1.131 2.394-1.654-.304.566-.609 1.175-.935 1.85-.327.675-.653 1.393-1.023 2.177-.37.783-.675 1.588-1.023 2.415a44.016 44.016 0 0 0-.958 2.547 55.282 55.282 0 0 0-1.632 5.397c-.218.849-.37 1.676-.5 2.503a35.55 35.55 0 0 0-.327 2.808v2.394c-1.306 0-2.655 0-4.005.152s-3.112.283-4.592.522c.283-1.219.566-2.394.914-3.482.417-1.41.903-2.796 1.458-4.157.262-.631.544-1.262.827-1.85a34.082 34.082 0 0 1 1.894-3.417Zm38.326 20.48a4.701 4.701 0 0 0-1.153-.914l-.24-.174a55.105 55.105 0 0 0-5.506-2.481 50.264 50.264 0 0 0-3.373-1.219c-1.197-.392-2.416-.718-3.722-1.045 1-2.012 1.858-4.092 2.568-6.224a91.23 91.23 0 0 0 .958-2.96c.283-.936.544-1.893.761-2.786.218-.892.305-1.219.436-1.806.13-.588.304-1.24.413-1.807.109-.565.153-.696.218-1.023.261-1.349.457-2.328.61-2.96a2.677 2.677 0 0 0 0-1.24 3.352 3.352 0 0 0-.175-.413 4.353 4.353 0 0 0-1.066-1.372 2.786 2.786 0 0 0-.457-.304l-.588-.24a.914.914 0 0 0-.326 0c-.392 0-.632.174-.74.61a12.06 12.06 0 0 1-.37 1.306c-.153.457-.349.957-.566 1.48a34.518 34.518 0 0 1-1.48 3.199l-.675 1.153c-.392.697-.762 1.371-1.175 2.024-.449.76-.95 1.488-1.502 2.177a7.4 7.4 0 0 1-.5.653c-.312.389-.646.76-1.002 1.11a8.706 8.706 0 0 1-.957.87 2.982 2.982 0 0 1-.457.327c-.364.259-.794.41-1.24.435a1.284 1.284 0 0 1-.501-.109.87.87 0 0 1-.349-.283 1.175 1.175 0 0 1-.217-.435 2.372 2.372 0 0 1 0-.566 8.858 8.858 0 0 1 .326-2.176l.392-1.24c.152-.414.305-.85.5-1.263.349-.87.74-1.72 1.176-2.568.435-.85.827-1.61 1.219-2.177l.565-.957.48-.806c.282-.5.5-.827.609-1 .16-.245.207-.546.13-.828.01-.116.01-.232 0-.348a4.135 4.135 0 0 0-.761-1.393 4.352 4.352 0 0 0-.566-.522 3.112 3.112 0 0 0-.653-.349 1.24 1.24 0 0 0-1.328.283c-.22.187-.423.39-.61.61l-.391.457-.435.566c-.305.413-.61.849-.914 1.35l-.719 1.24-.195.413a22.57 22.57 0 0 0-1.328 3.33 6.943 6.943 0 0 0-.24.718 16.519 16.519 0 0 0-.826 4.636c0 .352.044.703.13 1.045.067.362.184.714.348 1.044.285.7.674 1.354 1.154 1.937.216.282.456.544.718.784.239.228.493.439.762.63.404.323.898.513 1.414.545.483-.01.96-.099 1.415-.261l.566-.218c.433-.22.848-.475 1.24-.762.218-.174.458-.326.653-.5.62-.54 1.189-1.138 1.698-1.785l.435-.587c.347-.468.667-.955.958-1.459-.109.871-.261 1.676-.414 2.46a33.06 33.06 0 0 1-.544 2.35 52.485 52.485 0 0 1-.761 2.503 29.88 29.88 0 0 1-1.132 2.873l-1.72-.414-1.937-.326a101.189 101.189 0 0 0-4.352-.588c-1.001-.13-1.96-.195-2.917-.283l-1.393-.152h-2.024c.02-.604.07-1.207.153-1.806.109-.719.24-1.458.391-2.177.153-.718.327-1.501.545-2.285.217-.783.435-1.545.674-2.307.24-.762.479-1.523.74-2.176l.327-.87c.435-1.198.892-2.395 1.349-3.527.305-.718.588-1.392.849-2.045s.544-1.263.783-1.872c.5-1.175.936-2.176 1.328-3.09.392-.915.631-1.546.783-1.96v-.37c.06-.41.06-.828 0-1.24a8.423 8.423 0 0 0-.26-1.85 5.028 5.028 0 0 0-.675-1.545 1.24 1.24 0 0 0-1.023-.631 2.59 2.59 0 0 0-.98.217c-.209.08-.413.175-.61.283l-.456.174-.74.48-.762.543c-.522.392-1.066.85-1.632 1.328l-.805.762a40.823 40.823 0 0 0-1.698 1.676l-.827.87a39.003 39.003 0 0 0-1.545 1.872c-.48.631-.914 1.24-1.328 1.872a.631.631 0 0 0 0-.218c0-.16.065-.356.196-.588.174-.457.326-1.023.522-1.676s.392-1.414.566-2.176c.174-.762.348-1.654.479-2.481.11-.823.169-1.651.174-2.481a7.792 7.792 0 0 0-.261-2.177 3.482 3.482 0 0 0-.653-1.305h-.109a2.372 2.372 0 0 0-1.676-.566 5.79 5.79 0 0 0-3.351 1.327c-.625.433-1.221.906-1.785 1.415a23.942 23.942 0 0 0-1.915 2.176 53.081 53.081 0 0 0-4.07 5.964 94.73 94.73 0 0 0-4.092 7.791c.175-.892.327-1.806.523-2.764.196-.957.348-1.937.522-2.981.169-1.067.278-2.143.327-3.222.108-1.153.152-2.35.152-3.634a16.802 16.802 0 0 0-.566-4.353 12.253 12.253 0 0 0-1.545-3.591 7.748 7.748 0 0 0-1.088-1.371 7.616 7.616 0 0 0-.675-.544l-.631-.523a5.463 5.463 0 0 0-1.437-.696l-.74-.174h-.783a5.637 5.637 0 0 0-1.045 0h-.13l-.218.087-.653.152h-.283l-.958.327a19.152 19.152 0 0 0-3.395 1.828c-.348.218-.653.457-.98.696a25.747 25.747 0 0 0-2.175 1.85c-.501.48-1.002.958-1.459 1.437-.457.479-.979 1.044-1.393 1.545-.413.5-.74.936-1.044 1.393-.273.424-.513.868-.718 1.327l-.305.61a3.852 3.852 0 0 0-.348 1.545c.014.277.097.546.24.784.162.345.36.673.587.979.224.315.479.607.761.87.242.23.522.413.827.545.122.03.249.03.37 0a.805.805 0 0 0 .327 0 .675.675 0 0 0 .305-.262c.089-.164.155-.34.195-.522a25.659 25.659 0 0 1 1.829-3.613 20.415 20.415 0 0 1 2.764-3.656 16.366 16.366 0 0 1 3.743-2.808h.174a6.9 6.9 0 0 1 .914-.413c.326-.132.66-.24 1.001-.327h.305l.784-.152H125.886a2.176 2.176 0 0 1 1.633.653c.158.143.291.312.391.5.485.954.76 2 .806 3.07a26.117 26.117 0 0 1-.131 4.352 58.353 58.353 0 0 1-.326 2.547c-.131.87-.283 1.74-.436 2.633a159.864 159.864 0 0 1-1.131 5.42c-.414 1.806-.806 3.481-1.154 5.048-.24.98-.435 1.894-.61 2.72 0 .48-.217.959-.304 1.416-.087.457-.13.565-.174.827a11.448 11.448 0 0 0-.196 1.784c-.003.326.049.65.152.958.112.32.274.622.48.892a5.506 5.506 0 0 0 1.436 1.415c.316.216.67.371 1.044.457.145.022.291.022.436 0 .1.022.204.022.304 0a.718.718 0 0 0 .392-.435c.052-.126.088-.258.109-.392.114-1.025.288-2.043.522-3.047.109-.5.24-1.023.37-1.545.13-.523.305-1.067.479-1.59l.218-.652a55.736 55.736 0 0 1 2.176-5.572c.457-1 .914-2.002 1.415-2.96a84.27 84.27 0 0 1 1.545-2.785l.805-1.306a37.378 37.378 0 0 1 1.589-2.372l.762-1.067c.26-.348.522-.653.783-.957a18.26 18.26 0 0 1 1.458-1.611c.24-.24.457-.457.697-.653a3.852 3.852 0 0 1 2.307-1.197c.304 0 .435.283.413.892-.01.35-.047.7-.109 1.045 0 .392-.174.849-.304 1.35-.24.979-.588 2.176-1.001 3.482l-.675 2.176-.718 2.176c-.5 1.502-1.023 3.004-1.567 4.55l-.762 2.284c-.24.74-.479 1.48-.718 2.177-.436 1.436-.85 2.764-1.176 4.004 0 .305-.174.61-.239.893-.065.283-.261 1.088-.348 1.567-.087.478 0 .457-.109.674-.028.395.063.79.261 1.132v.196c.11.19.235.371.37.544-.98.24-1.937.5-2.83.805-.565.196-1.087.414-1.61.653-.847.379-1.656.838-2.415 1.371a10.12 10.12 0 0 0-2.177 2.177 9.25 9.25 0 0 0-.544.848 5.812 5.812 0 0 0-.435.915 8.38 8.38 0 0 0-.566 3.199 7.77 7.77 0 0 0 1.045 3.852c.175.31.371.609.587.892.34.447.71.869 1.11 1.263.408.416.852.794 1.328 1.131.684.5 1.413.938 2.176 1.306a18.89 18.89 0 0 0 2.59 1.023c.479.153.958.261 1.458.37a20.72 20.72 0 0 0 3.178.435h1.72a25.855 25.855 0 0 0 6.31-.74l1.48-.413a26.857 26.857 0 0 0 4.18-1.632 32.157 32.157 0 0 0 2.567-1.393c.827-.5 1.633-1.067 2.394-1.654a37 37 0 0 0 4.223-3.787 27.007 27.007 0 0 0 1.828-2.068 25.463 25.463 0 0 0 1.632-2.176 37.827 37.827 0 0 0 2.634-4.353l1.458.392a95.65 95.65 0 0 1 3.33.957l2.176.719 1.915.718.827.348c.85.348 1.633.675 2.177 1.001l.61.283c.166.1.341.187.521.261l.85.436c.304.195.478.26.543.217.066-.043.218-.413.11-.544Zm-36.259 11.121c-1.425.358-2.884.57-4.352.632h-2.895c-.988-.11-1.97-.278-2.938-.5h-.588l-1.153-.327a15.67 15.67 0 0 1-2.177-.893c-.33-.16-.65-.342-.957-.544a9.184 9.184 0 0 1-2.394-2.067 11.566 11.566 0 0 1-.61-.827 7.465 7.465 0 0 1-1.131-4.07 6.268 6.268 0 0 1 1.284-3.722 10.186 10.186 0 0 1 3.83-3.069 19.37 19.37 0 0 1 2.59-1.066l.696-.218 1.633-.435c.125.102.256.196.392.283.18.11.379.184.587.218a.544.544 0 0 0 .479-.153.957.957 0 0 0 .174-.24c.05-.118.086-.242.109-.37v-.13c2.976-.51 5.99-.758 9.01-.74.042.345.108.687.196 1.023v.174a7.27 7.27 0 0 0 2.068 3.591l.544.457c.133.112.28.207.435.283.261.13.479.174.61 0a.435.435 0 0 0 .239-.413 1.61 1.61 0 0 0 0-.392 1.828 1.828 0 0 0-.13-.305 7.597 7.597 0 0 1-.327-.74 8.706 8.706 0 0 1-.544-2.59v-1.066h1.153c1.567 0 3.156.261 4.723.435 1.567.174 3.047.37 4.353.566l1.871.283.806.13.696.11a45.098 45.098 0 0 1-2.176 4.091 29.948 29.948 0 0 1-2.873 4.026 32.277 32.277 0 0 1-3.678 3.635c-.436.348-.893.675-1.35 1.001a25.813 25.813 0 0 1-3.047 1.937l-.63.305c-.61.283-1.22.566-1.872.805-.868.347-1.755.644-2.656.892Z" fill="#fff" fill-rule="evenodd" data-name="Path 8971"/><path d="M161.97 357.81v-6.704h-7.42c.01.152.01.305 0 .457v13.059h7.377l.044-6.812Z" fill="#fff" fill-rule="evenodd" data-name="Path 8970"/><path d="M168.565 362.75a8.706 8.706 0 0 0-6.529 3.069v-1.263h-7.443v26.117h7.378V376.2c0-2.916.74-6.333 4.353-6.333 3.612 0 4.614 2.894 4.614 5.92v14.93h7.486v-16.693c-.065-5.79-3.59-11.274-9.859-11.274Z" fill="#fff" fill-rule="evenodd" data-name="Path 8969"/><path d="M137.574 362.467a13.32 13.32 0 0 1 13.972 13.864c0 7.9-5.31 14.995-13.58 14.995a18.434 18.434 0 0 1-4.636-.61v-7.77c1.24.52 2.572.787 3.917.784a6.53 6.53 0 0 0 6.66-7.051c0-3.2-2.177-6.878-5.702-6.878-4.767 0-7.226 3.026-7.226 7.596v23.57h-7.726v-25.246c0-7.704 6.834-13.254 14.32-13.254Z" fill="#fff" fill-rule="evenodd" data-name="Path 8968"/><path d="m261.106 356.895 1.414 3.81 1.437-3.81h.827v4.527h-.566v-3.765l-1.415 3.765h-.457l-1.436-3.765v3.765h-.566v-4.527h.762Z" fill="#fff" fill-rule="evenodd" data-name="Path 8967"/><path d="M256.122 357.396v-.5h3.634v.5h-1.523v4.026h-.588v-4.026h-1.523Z" fill="#fff" fill-rule="evenodd" data-name="Path 8966"/></g></svg>